<?xml version="1.0" encoding="UTF-8" standalone="no"?>
<!DOCTYPE svg PUBLIC "-//W3C//DTD SVG 1.1//EN"
 "http://www.w3.org/Graphics/SVG/1.1/DTD/svg11.dtd">
<!-- Generated by graphviz version 2.38.0 (20140413.2041)
 -->
<!-- Title: %231 Pages: 1 -->
<svg width="1562pt" height="779pt"
 viewBox="0.00 0.00 1561.80 779.35" xmlns="http://www.w3.org/2000/svg" xmlns:xlink="http://www.w3.org/1999/xlink">
<g id="graph0" class="graph" transform="scale(1 1) rotate(0) translate(4 775.35)">
<title>%231</title>
<polygon fill="white" stroke="none" points="-4,4 -4,-775.35 1557.8,-775.35 1557.8,4 -4,4"/>
<!-- n0 -->
<g id="node1" class="node"><title>n0</title>
<ellipse fill="none" stroke="black" cx="67.1751" cy="-463.175" rx="67.3507" ry="67.3507"/>
<text text-anchor="middle" x="67.1751" y="-474.475" font-family="Times New Roman,serif" font-size="14.00"> n0</text>
<text text-anchor="middle" x="67.1751" y="-459.475" font-family="Times New Roman,serif" font-size="14.00">match_flags 0</text>
<text text-anchor="middle" x="67.1751" y="-444.475" font-family="Times New Roman,serif" font-size="14.00">ref_flags 0</text>
</g>
<!-- n1 -->
<g id="node2" class="node"><title>n1</title>
<ellipse fill="none" stroke="black" cx="269.525" cy="-692.175" rx="67.3507" ry="67.3507"/>
<text text-anchor="middle" x="269.525" y="-703.475" font-family="Times New Roman,serif" font-size="14.00"> n1</text>
<text text-anchor="middle" x="269.525" y="-688.475" font-family="Times New Roman,serif" font-size="14.00">match_flags 0</text>
<text text-anchor="middle" x="269.525" y="-673.475" font-family="Times New Roman,serif" font-size="14.00">ref_flags 0</text>
</g>
<!-- n0&#45;&gt;n1 -->
<g id="edge1" class="edge"><title>n0&#45;&gt;n1</title>
<path fill="none" stroke="black" d="M112.143,-513.43C143.329,-549.076 185.261,-597.004 217.854,-634.258"/>
<polygon fill="black" stroke="black" points="215.441,-636.816 224.66,-642.037 220.71,-632.207 215.441,-636.816"/>
<text text-anchor="start" x="154.35" y="-594.975" font-family="Times New Roman,serif" font-size="14.00">b &#45; b</text>
</g>
<!-- n2 -->
<g id="node3" class="node"><title>n2</title>
<ellipse fill="none" stroke="black" cx="269.525" cy="-540.175" rx="67.3507" ry="67.3507"/>
<text text-anchor="middle" x="269.525" y="-551.475" font-family="Times New Roman,serif" font-size="14.00"> n2</text>
<text text-anchor="middle" x="269.525" y="-536.475" font-family="Times New Roman,serif" font-size="14.00">match_flags 0</text>
<text text-anchor="middle" x="269.525" y="-521.475" font-family="Times New Roman,serif" font-size="14.00">ref_flags 0</text>
</g>
<!-- n0&#45;&gt;n2 -->
<g id="edge2" class="edge"><title>n0&#45;&gt;n2</title>
<path fill="none" stroke="black" d="M130.195,-487.011C151.318,-495.129 175.102,-504.27 196.915,-512.653"/>
<polygon fill="black" stroke="black" points="195.864,-515.999 206.454,-516.319 198.375,-509.465 195.864,-515.999"/>
<text text-anchor="start" x="155.85" y="-509.975" font-family="Times New Roman,serif" font-size="14.00">s &#45; s</text>
</g>
<!-- n3 -->
<g id="node4" class="node"><title>n3</title>
<ellipse fill="none" stroke="black" cx="269.525" cy="-388.175" rx="67.3507" ry="67.3507"/>
<text text-anchor="middle" x="269.525" y="-399.475" font-family="Times New Roman,serif" font-size="14.00"> n3</text>
<text text-anchor="middle" x="269.525" y="-384.475" font-family="Times New Roman,serif" font-size="14.00">match_flags 0</text>
<text text-anchor="middle" x="269.525" y="-369.475" font-family="Times New Roman,serif" font-size="14.00">ref_flags 0</text>
</g>
<!-- n0&#45;&gt;n3 -->
<g id="edge3" class="edge"><title>n0&#45;&gt;n3</title>
<path fill="none" stroke="black" d="M130.469,-439.856C151.482,-431.99 175.103,-423.147 196.786,-415.03"/>
<polygon fill="black" stroke="black" points="198.132,-418.264 206.27,-411.48 195.678,-411.708 198.132,-418.264"/>
<text text-anchor="start" x="152.35" y="-432.975" font-family="Times New Roman,serif" font-size="14.00">w &#45; w</text>
</g>
<!-- n4 -->
<g id="node5" class="node"><title>n4</title>
<ellipse fill="none" stroke="black" cx="269.525" cy="-217.175" rx="67.3507" ry="67.3507"/>
<text text-anchor="middle" x="269.525" y="-228.475" font-family="Times New Roman,serif" font-size="14.00"> n4</text>
<text text-anchor="middle" x="269.525" y="-213.475" font-family="Times New Roman,serif" font-size="14.00">match_flags 0</text>
<text text-anchor="middle" x="269.525" y="-198.475" font-family="Times New Roman,serif" font-size="14.00">ref_flags 0</text>
</g>
<!-- n0&#45;&gt;n4 -->
<g id="edge4" class="edge"><title>n0&#45;&gt;n4</title>
<path fill="none" stroke="black" d="M110.419,-411.305C142.452,-371.974 186.526,-317.858 220.004,-276.752"/>
<polygon fill="black" stroke="black" points="222.738,-278.938 226.339,-268.974 217.31,-274.517 222.738,-278.938"/>
<text text-anchor="start" x="155.85" y="-357.975" font-family="Times New Roman,serif" font-size="14.00">z &#45; z</text>
</g>
<!-- n5 -->
<g id="node6" class="node"><title>n5</title>
<ellipse fill="none" stroke="black" cx="464.876" cy="-693.175" rx="67.3507" ry="67.3507"/>
<text text-anchor="middle" x="464.876" y="-704.475" font-family="Times New Roman,serif" font-size="14.00"> n5</text>
<text text-anchor="middle" x="464.876" y="-689.475" font-family="Times New Roman,serif" font-size="14.00">match_flags 0</text>
<text text-anchor="middle" x="464.876" y="-674.475" font-family="Times New Roman,serif" font-size="14.00">ref_flags 0</text>
</g>
<!-- n1&#45;&gt;n5 -->
<g id="edge5" class="edge"><title>n1&#45;&gt;n5</title>
<path fill="none" stroke="black" d="M336.795,-692.518C353.09,-692.602 370.669,-692.693 387.402,-692.78"/>
<polygon fill="black" stroke="black" points="387.675,-696.281 397.693,-692.833 387.711,-689.281 387.675,-696.281"/>
<text text-anchor="start" x="357.701" y="-695.975" font-family="Times New Roman,serif" font-size="14.00">l &#45; l</text>
</g>
<!-- n6 -->
<g id="node7" class="node"><title>n6</title>
<ellipse fill="none" stroke="black" cx="464.876" cy="-541.175" rx="67.3507" ry="67.3507"/>
<text text-anchor="middle" x="464.876" y="-552.475" font-family="Times New Roman,serif" font-size="14.00"> n6</text>
<text text-anchor="middle" x="464.876" y="-537.475" font-family="Times New Roman,serif" font-size="14.00">match_flags 0</text>
<text text-anchor="middle" x="464.876" y="-522.475" font-family="Times New Roman,serif" font-size="14.00">ref_flags 0</text>
</g>
<!-- n2&#45;&gt;n6 -->
<g id="edge6" class="edge"><title>n2&#45;&gt;n6</title>
<path fill="none" stroke="black" d="M336.795,-540.518C353.09,-540.602 370.669,-540.693 387.402,-540.78"/>
<polygon fill="black" stroke="black" points="387.675,-544.281 397.693,-540.833 387.711,-537.281 387.675,-544.281"/>
<text text-anchor="start" x="357.201" y="-543.975" font-family="Times New Roman,serif" font-size="14.00">t &#45; t</text>
</g>
<!-- n7 -->
<g id="node8" class="node"><title>n7</title>
<ellipse fill="none" stroke="black" cx="464.876" cy="-388.175" rx="67.3507" ry="67.3507"/>
<text text-anchor="middle" x="464.876" y="-399.475" font-family="Times New Roman,serif" font-size="14.00"> n7</text>
<text text-anchor="middle" x="464.876" y="-384.475" font-family="Times New Roman,serif" font-size="14.00">match_flags 0</text>
<text text-anchor="middle" x="464.876" y="-369.475" font-family="Times New Roman,serif" font-size="14.00">ref_flags 0</text>
</g>
<!-- n3&#45;&gt;n7 -->
<g id="edge7" class="edge"><title>n3&#45;&gt;n7</title>
<path fill="none" stroke="black" d="M336.795,-388.175C353.09,-388.175 370.669,-388.175 387.402,-388.175"/>
<polygon fill="black" stroke="black" points="387.693,-391.675 397.693,-388.175 387.693,-384.675 387.693,-391.675"/>
<text text-anchor="start" x="357.701" y="-391.975" font-family="Times New Roman,serif" font-size="14.00">i &#45; i</text>
</g>
<!-- n8 -->
<g id="node9" class="node"><title>n8</title>
<ellipse fill="none" stroke="black" cx="464.876" cy="-236.175" rx="67.3507" ry="67.3507"/>
<text text-anchor="middle" x="464.876" y="-247.475" font-family="Times New Roman,serif" font-size="14.00"> n8</text>
<text text-anchor="middle" x="464.876" y="-232.475" font-family="Times New Roman,serif" font-size="14.00">match_flags 0</text>
<text text-anchor="middle" x="464.876" y="-217.475" font-family="Times New Roman,serif" font-size="14.00">ref_flags 0</text>
</g>
<!-- n3&#45;&gt;n8 -->
<g id="edge8" class="edge"><title>n3&#45;&gt;n8</title>
<path fill="none" stroke="black" d="M322.849,-347.042C347.782,-327.441 377.74,-303.89 403.62,-283.545"/>
<polygon fill="black" stroke="black" points="405.812,-286.273 411.511,-277.341 401.486,-280.77 405.812,-286.273"/>
<text text-anchor="start" x="354.701" y="-324.975" font-family="Times New Roman,serif" font-size="14.00">s &#45; s</text>
</g>
<!-- n9 -->
<g id="node10" class="node"><title>n9</title>
<ellipse fill="none" stroke="black" cx="464.876" cy="-84.1751" rx="67.3507" ry="67.3507"/>
<text text-anchor="middle" x="464.876" y="-95.4751" font-family="Times New Roman,serif" font-size="14.00"> n9</text>
<text text-anchor="middle" x="464.876" y="-80.4751" font-family="Times New Roman,serif" font-size="14.00">match_flags 0</text>
<text text-anchor="middle" x="464.876" y="-65.4751" font-family="Times New Roman,serif" font-size="14.00">ref_flags 0</text>
</g>
<!-- n4&#45;&gt;n9 -->
<g id="edge9" class="edge"><title>n4&#45;&gt;n9</title>
<path fill="none" stroke="black" d="M325.415,-179.418C348.884,-163.274 376.423,-144.332 400.732,-127.61"/>
<polygon fill="black" stroke="black" points="402.929,-130.347 409.184,-121.796 398.962,-124.58 402.929,-130.347"/>
<text text-anchor="start" x="354.701" y="-161.975" font-family="Times New Roman,serif" font-size="14.00">s &#45; s</text>
</g>
<!-- n10 -->
<g id="node11" class="node"><title>n10</title>
<ellipse fill="none" stroke="black" cx="665.226" cy="-700.175" rx="67.3507" ry="67.3507"/>
<text text-anchor="middle" x="665.226" y="-711.475" font-family="Times New Roman,serif" font-size="14.00"> n10</text>
<text text-anchor="middle" x="665.226" y="-696.475" font-family="Times New Roman,serif" font-size="14.00">match_flags 0</text>
<text text-anchor="middle" x="665.226" y="-681.475" font-family="Times New Roman,serif" font-size="14.00">ref_flags 0</text>
</g>
<!-- n5&#45;&gt;n10 -->
<g id="edge10" class="edge"><title>n5&#45;&gt;n10</title>
<path fill="none" stroke="black" d="M532.199,-695.516C550.064,-696.146 569.531,-696.833 587.894,-697.481"/>
<polygon fill="black" stroke="black" points="587.848,-700.982 597.965,-697.837 588.095,-693.986 587.848,-700.982"/>
<text text-anchor="start" x="553.551" y="-699.975" font-family="Times New Roman,serif" font-size="14.00">i &#45; i</text>
</g>
<!-- n11 -->
<g id="node12" class="node"><title>n11</title>
<ellipse fill="none" stroke="black" cx="665.226" cy="-544.175" rx="67.3409" ry="67.3409"/>
<ellipse fill="none" stroke="black" cx="665.226" cy="-544.175" rx="71.3507" ry="71.3507"/>
<text text-anchor="middle" x="665.226" y="-562.975" font-family="Times New Roman,serif" font-size="14.00"> n11</text>
<text text-anchor="middle" x="665.226" y="-547.975" font-family="Times New Roman,serif" font-size="14.00">match_flags 0</text>
<text text-anchor="middle" x="665.226" y="-532.975" font-family="Times New Roman,serif" font-size="14.00">ref_flags 0</text>
<text text-anchor="middle" x="665.226" y="-517.975" font-family="Times New Roman,serif" font-size="14.00">ID 5</text>
</g>
<!-- n6&#45;&gt;n11 -->
<g id="edge11" class="edge"><title>n6&#45;&gt;n11</title>
<path fill="none" stroke="black" d="M532.199,-542.178C548.769,-542.429 566.717,-542.7 583.884,-542.96"/>
<polygon fill="black" stroke="black" points="583.833,-546.46 593.885,-543.111 583.939,-539.46 583.833,-546.46"/>
<text text-anchor="start" x="552.051" y="-545.975" font-family="Times New Roman,serif" font-size="14.00">r &#45; r</text>
</g>
<!-- n12 -->
<g id="node13" class="node"><title>n12</title>
<ellipse fill="none" stroke="black" cx="665.226" cy="-388.175" rx="67.3507" ry="67.3507"/>
<text text-anchor="middle" x="665.226" y="-399.475" font-family="Times New Roman,serif" font-size="14.00"> n12</text>
<text text-anchor="middle" x="665.226" y="-384.475" font-family="Times New Roman,serif" font-size="14.00">match_flags 0</text>
<text text-anchor="middle" x="665.226" y="-369.475" font-family="Times New Roman,serif" font-size="14.00">ref_flags 0</text>
</g>
<!-- n7&#45;&gt;n12 -->
<g id="edge12" class="edge"><title>n7&#45;&gt;n12</title>
<path fill="none" stroke="black" d="M532.199,-388.175C550.064,-388.175 569.531,-388.175 587.894,-388.175"/>
<polygon fill="black" stroke="black" points="587.965,-391.675 597.965,-388.175 587.965,-384.675 587.965,-391.675"/>
<text text-anchor="start" x="550.051" y="-391.975" font-family="Times New Roman,serif" font-size="14.00">n &#45; n</text>
</g>
<!-- n13 -->
<g id="node14" class="node"><title>n13</title>
<ellipse fill="none" stroke="black" cx="665.226" cy="-234.175" rx="67.3507" ry="67.3507"/>
<text text-anchor="middle" x="665.226" y="-245.475" font-family="Times New Roman,serif" font-size="14.00"> n13</text>
<text text-anchor="middle" x="665.226" y="-230.475" font-family="Times New Roman,serif" font-size="14.00">match_flags 0</text>
<text text-anchor="middle" x="665.226" y="-215.475" font-family="Times New Roman,serif" font-size="14.00">ref_flags 0</text>
</g>
<!-- n8&#45;&gt;n13 -->
<g id="edge13" class="edge"><title>n8&#45;&gt;n13</title>
<path fill="none" stroke="black" d="M532.199,-235.506C550.064,-235.326 569.531,-235.13 587.894,-234.945"/>
<polygon fill="black" stroke="black" points="588.001,-238.444 597.965,-234.843 587.93,-231.444 588.001,-238.444"/>
<text text-anchor="start" x="553.051" y="-238.975" font-family="Times New Roman,serif" font-size="14.00">t &#45; t</text>
</g>
<!-- n14 -->
<g id="node15" class="node"><title>n14</title>
<ellipse fill="none" stroke="black" cx="665.226" cy="-79.1751" rx="67.3507" ry="67.3507"/>
<text text-anchor="middle" x="665.226" y="-90.4751" font-family="Times New Roman,serif" font-size="14.00"> n14</text>
<text text-anchor="middle" x="665.226" y="-75.4751" font-family="Times New Roman,serif" font-size="14.00">match_flags 0</text>
<text text-anchor="middle" x="665.226" y="-60.4751" font-family="Times New Roman,serif" font-size="14.00">ref_flags 0</text>
</g>
<!-- n9&#45;&gt;n14 -->
<g id="edge14" class="edge"><title>n9&#45;&gt;n14</title>
<path fill="none" stroke="black" d="M532.199,-82.5033C550.064,-82.0529 569.531,-81.5622 587.894,-81.0993"/>
<polygon fill="black" stroke="black" points="588.056,-84.5964 597.965,-80.8454 587.88,-77.5987 588.056,-84.5964"/>
<text text-anchor="start" x="553.051" y="-84.9751" font-family="Times New Roman,serif" font-size="14.00">t &#45; t</text>
</g>
<!-- n15 -->
<g id="node16" class="node"><title>n15</title>
<ellipse fill="none" stroke="black" cx="869.576" cy="-700.175" rx="67.3507" ry="67.3507"/>
<text text-anchor="middle" x="869.576" y="-711.475" font-family="Times New Roman,serif" font-size="14.00"> n15</text>
<text text-anchor="middle" x="869.576" y="-696.475" font-family="Times New Roman,serif" font-size="14.00">match_flags 0</text>
<text text-anchor="middle" x="869.576" y="-681.475" font-family="Times New Roman,serif" font-size="14.00">ref_flags 0</text>
</g>
<!-- n10&#45;&gt;n15 -->
<g id="edge15" class="edge"><title>n10&#45;&gt;n15</title>
<path fill="none" stroke="black" d="M732.483,-700.175C751.525,-700.175 772.447,-700.175 792.054,-700.175"/>
<polygon fill="black" stroke="black" points="792.17,-703.675 802.17,-700.175 792.17,-696.675 792.17,-703.675"/>
<text text-anchor="start" x="754.401" y="-703.975" font-family="Times New Roman,serif" font-size="14.00">n &#45; n</text>
</g>
<!-- n16 -->
<g id="node17" class="node"><title>n16</title>
<ellipse fill="none" stroke="black" cx="869.576" cy="-544.175" rx="67.3507" ry="67.3507"/>
<text text-anchor="middle" x="869.576" y="-555.475" font-family="Times New Roman,serif" font-size="14.00"> n16</text>
<text text-anchor="middle" x="869.576" y="-540.475" font-family="Times New Roman,serif" font-size="14.00">match_flags 0</text>
<text text-anchor="middle" x="869.576" y="-525.475" font-family="Times New Roman,serif" font-size="14.00">ref_flags 0</text>
</g>
<!-- n11&#45;&gt;n16 -->
<g id="edge16" class="edge"><title>n11&#45;&gt;n16</title>
<path fill="none" stroke="black" d="M736.43,-544.175C754.441,-544.175 773.9,-544.175 792.205,-544.175"/>
<polygon fill="black" stroke="black" points="792.239,-547.675 802.239,-544.175 792.239,-540.675 792.239,-547.675"/>
<text text-anchor="start" x="757.901" y="-547.975" font-family="Times New Roman,serif" font-size="14.00">i &#45; i</text>
</g>
<!-- n17 -->
<g id="node18" class="node"><title>n17</title>
<ellipse fill="none" stroke="black" cx="869.576" cy="-388.175" rx="67.3409" ry="67.3409"/>
<ellipse fill="none" stroke="black" cx="869.576" cy="-388.175" rx="71.3507" ry="71.3507"/>
<text text-anchor="middle" x="869.576" y="-406.975" font-family="Times New Roman,serif" font-size="14.00"> n17</text>
<text text-anchor="middle" x="869.576" y="-391.975" font-family="Times New Roman,serif" font-size="14.00">match_flags 0</text>
<text text-anchor="middle" x="869.576" y="-376.975" font-family="Times New Roman,serif" font-size="14.00">ref_flags 0</text>
<text text-anchor="middle" x="869.576" y="-361.975" font-family="Times New Roman,serif" font-size="14.00">ID 7</text>
</g>
<!-- n12&#45;&gt;n17 -->
<g id="edge17" class="edge"><title>n12&#45;&gt;n17</title>
<path fill="none" stroke="black" d="M732.483,-388.175C750.28,-388.175 769.72,-388.175 788.194,-388.175"/>
<polygon fill="black" stroke="black" points="788.341,-391.675 798.341,-388.175 788.341,-384.675 788.341,-391.675"/>
<text text-anchor="start" x="754.401" y="-391.975" font-family="Times New Roman,serif" font-size="14.00">g &#45; g</text>
</g>
<!-- n18 -->
<g id="node19" class="node"><title>n18</title>
<ellipse fill="none" stroke="black" cx="869.576" cy="-228.175" rx="67.3409" ry="67.3409"/>
<ellipse fill="none" stroke="black" cx="869.576" cy="-228.175" rx="71.3507" ry="71.3507"/>
<text text-anchor="middle" x="869.576" y="-246.975" font-family="Times New Roman,serif" font-size="14.00"> n18</text>
<text text-anchor="middle" x="869.576" y="-231.975" font-family="Times New Roman,serif" font-size="14.00">match_flags 0</text>
<text text-anchor="middle" x="869.576" y="-216.975" font-family="Times New Roman,serif" font-size="14.00">ref_flags 0</text>
<text text-anchor="middle" x="869.576" y="-201.975" font-family="Times New Roman,serif" font-size="14.00">ID 4</text>
</g>
<!-- n13&#45;&gt;n18 -->
<g id="edge18" class="edge"><title>n13&#45;&gt;n18</title>
<path fill="none" stroke="black" d="M732.483,-232.211C750.28,-231.683 769.72,-231.106 788.194,-230.559"/>
<polygon fill="black" stroke="black" points="788.449,-234.053 798.341,-230.258 788.241,-227.056 788.449,-234.053"/>
<text text-anchor="start" x="756.401" y="-234.975" font-family="Times New Roman,serif" font-size="14.00">r &#45; r</text>
</g>
<!-- n19 -->
<g id="node20" class="node"><title>n19</title>
<ellipse fill="none" stroke="black" cx="869.576" cy="-72.1751" rx="67.3507" ry="67.3507"/>
<text text-anchor="middle" x="869.576" y="-83.4751" font-family="Times New Roman,serif" font-size="14.00"> n19</text>
<text text-anchor="middle" x="869.576" y="-68.4751" font-family="Times New Roman,serif" font-size="14.00">match_flags 0</text>
<text text-anchor="middle" x="869.576" y="-53.4751" font-family="Times New Roman,serif" font-size="14.00">ref_flags 0</text>
</g>
<!-- n14&#45;&gt;n19 -->
<g id="edge19" class="edge"><title>n14&#45;&gt;n19</title>
<path fill="none" stroke="black" d="M732.483,-76.8831C751.525,-76.2244 772.447,-75.5006 792.054,-74.8223"/>
<polygon fill="black" stroke="black" points="792.297,-78.3161 802.17,-74.4724 792.055,-71.3203 792.297,-78.3161"/>
<text text-anchor="start" x="756.401" y="-78.9751" font-family="Times New Roman,serif" font-size="14.00">r &#45; r</text>
</g>
<!-- n20 -->
<g id="node21" class="node"><title>n20</title>
<ellipse fill="none" stroke="black" cx="1073.93" cy="-700.175" rx="67.3409" ry="67.3409"/>
<ellipse fill="none" stroke="black" cx="1073.93" cy="-700.175" rx="71.3507" ry="71.3507"/>
<text text-anchor="middle" x="1073.93" y="-718.975" font-family="Times New Roman,serif" font-size="14.00"> n20</text>
<text text-anchor="middle" x="1073.93" y="-703.975" font-family="Times New Roman,serif" font-size="14.00">match_flags 0</text>
<text text-anchor="middle" x="1073.93" y="-688.975" font-family="Times New Roman,serif" font-size="14.00">ref_flags 0</text>
<text text-anchor="middle" x="1073.93" y="-673.975" font-family="Times New Roman,serif" font-size="14.00">ID 6</text>
</g>
<!-- n15&#45;&gt;n20 -->
<g id="edge20" class="edge"><title>n15&#45;&gt;n20</title>
<path fill="none" stroke="black" d="M936.833,-700.175C954.63,-700.175 974.071,-700.175 992.544,-700.175"/>
<polygon fill="black" stroke="black" points="992.691,-703.675 1002.69,-700.175 992.691,-696.675 992.691,-703.675"/>
<text text-anchor="start" x="958.751" y="-703.975" font-family="Times New Roman,serif" font-size="14.00">g &#45; g</text>
</g>
<!-- n21 -->
<g id="node22" class="node"><title>n21</title>
<ellipse fill="none" stroke="black" cx="1073.93" cy="-544.175" rx="67.3507" ry="67.3507"/>
<text text-anchor="middle" x="1073.93" y="-555.475" font-family="Times New Roman,serif" font-size="14.00"> n21</text>
<text text-anchor="middle" x="1073.93" y="-540.475" font-family="Times New Roman,serif" font-size="14.00">match_flags 0</text>
<text text-anchor="middle" x="1073.93" y="-525.475" font-family="Times New Roman,serif" font-size="14.00">ref_flags 0</text>
</g>
<!-- n16&#45;&gt;n21 -->
<g id="edge21" class="edge"><title>n16&#45;&gt;n21</title>
<path fill="none" stroke="black" d="M936.833,-544.175C955.875,-544.175 976.797,-544.175 996.404,-544.175"/>
<polygon fill="black" stroke="black" points="996.521,-547.675 1006.52,-544.175 996.521,-540.675 996.521,-547.675"/>
<text text-anchor="start" x="958.751" y="-547.975" font-family="Times New Roman,serif" font-size="14.00">n &#45; n</text>
</g>
<!-- n22 -->
<g id="node23" class="node"><title>n22</title>
<ellipse fill="none" stroke="black" cx="1073.93" cy="-228.175" rx="67.3507" ry="67.3507"/>
<text text-anchor="middle" x="1073.93" y="-239.475" font-family="Times New Roman,serif" font-size="14.00"> n22</text>
<text text-anchor="middle" x="1073.93" y="-224.475" font-family="Times New Roman,serif" font-size="14.00">match_flags 0</text>
<text text-anchor="middle" x="1073.93" y="-209.475" font-family="Times New Roman,serif" font-size="14.00">ref_flags 0</text>
</g>
<!-- n18&#45;&gt;n22 -->
<g id="edge22" class="edge"><title>n18&#45;&gt;n22</title>
<path fill="none" stroke="black" d="M940.781,-228.175C958.791,-228.175 978.251,-228.175 996.556,-228.175"/>
<polygon fill="black" stroke="black" points="996.59,-231.675 1006.59,-228.175 996.59,-224.675 996.59,-231.675"/>
<text text-anchor="start" x="962.251" y="-231.975" font-family="Times New Roman,serif" font-size="14.00">i &#45; i</text>
</g>
<!-- n23 -->
<g id="node24" class="node"><title>n23</title>
<ellipse fill="none" stroke="black" cx="1073.93" cy="-72.1751" rx="67.3507" ry="67.3507"/>
<text text-anchor="middle" x="1073.93" y="-83.4751" font-family="Times New Roman,serif" font-size="14.00"> n23</text>
<text text-anchor="middle" x="1073.93" y="-68.4751" font-family="Times New Roman,serif" font-size="14.00">match_flags 0</text>
<text text-anchor="middle" x="1073.93" y="-53.4751" font-family="Times New Roman,serif" font-size="14.00">ref_flags 0</text>
</g>
<!-- n19&#45;&gt;n23 -->
<g id="edge23" class="edge"><title>n19&#45;&gt;n23</title>
<path fill="none" stroke="black" d="M936.833,-72.1751C955.875,-72.1751 976.797,-72.1751 996.404,-72.1751"/>
<polygon fill="black" stroke="black" points="996.521,-75.6752 1006.52,-72.1751 996.521,-68.6752 996.521,-75.6752"/>
<text text-anchor="start" x="962.251" y="-75.9751" font-family="Times New Roman,serif" font-size="14.00">i &#45; i</text>
</g>
<!-- n24 -->
<g id="node25" class="node"><title>n24</title>
<ellipse fill="none" stroke="black" cx="1278.28" cy="-544.175" rx="67.3409" ry="67.3409"/>
<ellipse fill="none" stroke="black" cx="1278.28" cy="-544.175" rx="71.3507" ry="71.3507"/>
<text text-anchor="middle" x="1278.28" y="-562.975" font-family="Times New Roman,serif" font-size="14.00"> n24</text>
<text text-anchor="middle" x="1278.28" y="-547.975" font-family="Times New Roman,serif" font-size="14.00">match_flags 0</text>
<text text-anchor="middle" x="1278.28" y="-532.975" font-family="Times New Roman,serif" font-size="14.00">ref_flags 0</text>
<text text-anchor="middle" x="1278.28" y="-517.975" font-family="Times New Roman,serif" font-size="14.00">ID 3</text>
</g>
<!-- n21&#45;&gt;n24 -->
<g id="edge24" class="edge"><title>n21&#45;&gt;n24</title>
<path fill="none" stroke="black" d="M1141.18,-544.175C1158.98,-544.175 1178.42,-544.175 1196.89,-544.175"/>
<polygon fill="black" stroke="black" points="1197.04,-547.675 1207.04,-544.175 1197.04,-540.675 1197.04,-547.675"/>
<text text-anchor="start" x="1163.1" y="-547.975" font-family="Times New Roman,serif" font-size="14.00">g &#45; g</text>
</g>
<!-- n25 -->
<g id="node26" class="node"><title>n25</title>
<ellipse fill="none" stroke="black" cx="1278.28" cy="-229.175" rx="67.3507" ry="67.3507"/>
<text text-anchor="middle" x="1278.28" y="-240.475" font-family="Times New Roman,serif" font-size="14.00"> n25</text>
<text text-anchor="middle" x="1278.28" y="-225.475" font-family="Times New Roman,serif" font-size="14.00">match_flags 0</text>
<text text-anchor="middle" x="1278.28" y="-210.475" font-family="Times New Roman,serif" font-size="14.00">ref_flags 0</text>
</g>
<!-- n22&#45;&gt;n25 -->
<g id="edge25" class="edge"><title>n22&#45;&gt;n25</title>
<path fill="none" stroke="black" d="M1141.18,-228.503C1160.23,-228.597 1181.15,-228.7 1200.75,-228.797"/>
<polygon fill="black" stroke="black" points="1200.85,-232.297 1210.87,-228.847 1200.89,-225.297 1200.85,-232.297"/>
<text text-anchor="start" x="1163.1" y="-231.975" font-family="Times New Roman,serif" font-size="14.00">n &#45; n</text>
</g>
<!-- n26 -->
<g id="node27" class="node"><title>n26</title>
<ellipse fill="none" stroke="black" cx="1278.28" cy="-72.1751" rx="67.3507" ry="67.3507"/>
<text text-anchor="middle" x="1278.28" y="-83.4751" font-family="Times New Roman,serif" font-size="14.00"> n26</text>
<text text-anchor="middle" x="1278.28" y="-68.4751" font-family="Times New Roman,serif" font-size="14.00">match_flags 0</text>
<text text-anchor="middle" x="1278.28" y="-53.4751" font-family="Times New Roman,serif" font-size="14.00">ref_flags 0</text>
</g>
<!-- n23&#45;&gt;n26 -->
<g id="edge26" class="edge"><title>n23&#45;&gt;n26</title>
<path fill="none" stroke="black" d="M1141.18,-72.1751C1160.23,-72.1751 1181.15,-72.1751 1200.75,-72.1751"/>
<polygon fill="black" stroke="black" points="1200.87,-75.6752 1210.87,-72.1751 1200.87,-68.6752 1200.87,-75.6752"/>
<text text-anchor="start" x="1163.1" y="-75.9751" font-family="Times New Roman,serif" font-size="14.00">n &#45; n</text>
</g>
<!-- n27 -->
<g id="node28" class="node"><title>n27</title>
<ellipse fill="none" stroke="black" cx="1482.63" cy="-231.175" rx="67.3409" ry="67.3409"/>
<ellipse fill="none" stroke="black" cx="1482.63" cy="-231.175" rx="71.3507" ry="71.3507"/>
<text text-anchor="middle" x="1482.63" y="-249.975" font-family="Times New Roman,serif" font-size="14.00"> n27</text>
<text text-anchor="middle" x="1482.63" y="-234.975" font-family="Times New Roman,serif" font-size="14.00">match_flags 0</text>
<text text-anchor="middle" x="1482.63" y="-219.975" font-family="Times New Roman,serif" font-size="14.00">ref_flags 0</text>
<text text-anchor="middle" x="1482.63" y="-204.975" font-family="Times New Roman,serif" font-size="14.00">ID 1</text>
</g>
<!-- n25&#45;&gt;n27 -->
<g id="edge27" class="edge"><title>n25&#45;&gt;n27</title>
<path fill="none" stroke="black" d="M1345.53,-229.83C1363.33,-230.006 1382.77,-230.198 1401.24,-230.381"/>
<polygon fill="black" stroke="black" points="1401.36,-233.882 1411.39,-230.481 1401.43,-226.882 1401.36,-233.882"/>
<text text-anchor="start" x="1367.45" y="-233.975" font-family="Times New Roman,serif" font-size="14.00">g &#45; g</text>
</g>
<!-- n28 -->
<g id="node29" class="node"><title>n28</title>
<ellipse fill="none" stroke="black" cx="1482.63" cy="-71.1751" rx="67.3409" ry="67.3409"/>
<ellipse fill="none" stroke="black" cx="1482.63" cy="-71.1751" rx="71.3507" ry="71.3507"/>
<text text-anchor="middle" x="1482.63" y="-89.9751" font-family="Times New Roman,serif" font-size="14.00"> n28</text>
<text text-anchor="middle" x="1482.63" y="-74.9751" font-family="Times New Roman,serif" font-size="14.00">match_flags 0</text>
<text text-anchor="middle" x="1482.63" y="-59.9751" font-family="Times New Roman,serif" font-size="14.00">ref_flags 0</text>
<text text-anchor="middle" x="1482.63" y="-44.9751" font-family="Times New Roman,serif" font-size="14.00">ID 2</text>
</g>
<!-- n26&#45;&gt;n28 -->
<g id="edge28" class="edge"><title>n26&#45;&gt;n28</title>
<path fill="none" stroke="black" d="M1345.53,-71.8477C1363.33,-71.7598 1382.77,-71.6637 1401.24,-71.5724"/>
<polygon fill="black" stroke="black" points="1401.41,-75.0717 1411.39,-71.5222 1401.37,-68.0718 1401.41,-75.0717"/>
<text text-anchor="start" x="1367.45" y="-74.9751" font-family="Times New Roman,serif" font-size="14.00">g &#45; g</text>
</g>
</g>
</svg>
